<svg width="14" height="14" viewBox="0 0 14 14" fill="none" xmlns="http://www.w3.org/2000/svg">
<path fill-rule="evenodd" clip-rule="evenodd" d="M1.70708 0.292919C1.51848 0.110761 1.26588 0.00996641 1.00368 0.0122448C0.741483 0.0145233 0.490671 0.119692 0.305263 0.3051C0.119854 0.490508 0.0146856 0.741321 0.0124071 1.00352C0.0101287 1.26571 0.110923 1.51832 0.293081 1.70692L5.58608 6.99992L0.293081 12.2929C0.197571 12.3852 0.121389 12.4955 0.0689798 12.6175C0.0165708 12.7395 -0.0110155 12.8707 -0.0121693 13.0035C-0.0133231 13.1363 0.0119786 13.268 0.0622595 13.3909C0.11254 13.5138 0.186793 13.6254 0.280686 13.7193C0.374579 13.8132 0.486231 13.8875 0.609127 13.9377C0.732024 13.988 0.863703 14.0133 0.996482 14.0122C1.12926 14.011 1.26048 13.9834 1.38249 13.931C1.50449 13.8786 1.61483 13.8024 1.70708 13.7069L7.00008 8.41392L12.2931 13.7069C12.4817 13.8891 12.7343 13.9899 12.9965 13.9876C13.2587 13.9853 13.5095 13.8801 13.6949 13.6947C13.8803 13.5093 13.9855 13.2585 13.9878 12.9963C13.99 12.7341 13.8892 12.4815 13.7071 12.2929L8.41408 6.99992L13.7071 1.70692C13.8892 1.51832 13.99 1.26571 13.9878 1.00352C13.9855 0.741321 13.8803 0.490508 13.6949 0.3051C13.5095 0.119692 13.2587 0.0145233 12.9965 0.0122448C12.7343 0.00996641 12.4817 0.110761 12.2931 0.292919L7.00008 5.58592L1.70708 0.292919Z" fill="#C72727"/>
</svg>
