<svg width="16" height="20" viewBox="0 0 16 20" fill="none" xmlns="http://www.w3.org/2000/svg">
<path d="M7.99991 4.0001C10.0999 4.0001 12.0999 4.8001 13.5999 6.3001C16.6999 9.4001 16.6999 14.5001 13.5999 17.6001C11.7999 19.5001 9.29991 20.2001 6.89991 19.9001L7.39991 17.9001C9.09991 18.1001 10.8999 17.5001 12.1999 16.2001C14.4999 13.9001 14.4999 10.1001 12.1999 7.7001C11.0999 6.6001 9.49991 6.0001 7.99991 6.0001V10.6001L2.99991 5.6001L7.99991 0.600098V4.0001ZM2.29991 17.6001C-0.300093 15.0001 -0.700093 11.0001 1.09991 7.9001L2.59991 9.4001C1.49991 11.6001 1.89991 14.4001 3.79991 16.2001C4.29991 16.7001 4.89991 17.1001 5.59991 17.4001L4.99991 19.4001C3.99991 19.0001 3.09991 18.4001 2.29991 17.6001Z" fill="#FFA602"/>
</svg>
